<svg width="33" height="33" viewBox="0 0 33 33" fill="none" xmlns="http://www.w3.org/2000/svg">
<path d="M21.6289 3.7002H27.1836C28.2024 3.7002 28.676 3.89104 28.9053 4.09473C29.1059 4.27299 29.2998 4.62555 29.2998 5.47266V11.7148C29.2998 12.5623 29.1061 12.9137 28.9072 13.0898C28.68 13.2909 28.2079 13.48 27.1895 13.4736H21.6289C20.6066 13.4736 20.1335 13.285 19.9053 13.083C19.707 12.9074 19.5127 12.5568 19.5127 11.7012V5.47266C19.5127 4.62555 19.7066 4.27299 19.9072 4.09473C20.1365 3.89104 20.6101 3.7002 21.6289 3.7002Z" stroke="#1F1F1F" stroke-width="1.9"/>
<path d="M21.6289 19.5127H27.1836C28.1816 19.5127 28.6367 19.7187 28.8652 19.9473C29.0938 20.1758 29.2998 20.6309 29.2998 21.6289V27.1836C29.2998 28.1816 29.0938 28.6367 28.8652 28.8652C28.6367 29.0938 28.1816 29.2998 27.1836 29.2998H21.6289C20.6309 29.2998 20.1758 29.0938 19.9473 28.8652C19.7187 28.6367 19.5127 28.1816 19.5127 27.1836V21.6289C19.5127 20.6309 19.7187 20.1758 19.9473 19.9473C20.1758 19.7187 20.6309 19.5127 21.6289 19.5127Z" stroke="#1F1F1F" stroke-width="1.9"/>
<path d="M5.81641 3.7002H11.3711C12.3899 3.7002 12.8635 3.89104 13.0928 4.09473C13.2934 4.27299 13.4873 4.62555 13.4873 5.47266V11.7148C13.4873 12.5623 13.2936 12.9137 13.0947 13.0898C12.8675 13.2909 12.3954 13.48 11.377 13.4736H5.81641C4.79406 13.4736 4.32098 13.285 4.09277 13.083C3.89451 12.9074 3.7002 12.5568 3.7002 11.7012V5.47266C3.7002 4.62555 3.89409 4.27299 4.09473 4.09473C4.32404 3.89104 4.79757 3.7002 5.81641 3.7002Z" stroke="#1F1F1F" stroke-width="1.9"/>
<path d="M5.81641 19.5127H11.3711C12.3691 19.5127 12.8242 19.7187 13.0527 19.9473C13.2813 20.1758 13.4873 20.6309 13.4873 21.6289V27.1836C13.4873 28.1816 13.2813 28.6367 13.0527 28.8652C12.8242 29.0938 12.3691 29.2998 11.3711 29.2998H5.81641C4.81843 29.2998 4.36334 29.0938 4.13477 28.8652C3.90619 28.6367 3.7002 28.1816 3.7002 27.1836V21.6289C3.7002 20.6309 3.90619 20.1758 4.13477 19.9473C4.36334 19.7187 4.81843 19.5127 5.81641 19.5127Z" stroke="#1F1F1F" stroke-width="1.9"/>
</svg>
